<svg height="32" viewBox="0 0 32 32" width="32" xmlns="http://www.w3.org/2000/svg"><path d="m27.912 7.289-10.324-5.961c-.455-.268-1.002-.425-1.588-.425s-1.133.158-1.604.433l.015-.008-10.324 5.961c-.955.561-1.586 1.582-1.588 2.75v11.922c.002 1.168.635 2.189 1.574 2.742l.016.008 10.322 5.961c.455.267 1.004.425 1.59.425.584 0 1.131-.158 1.602-.433l-.014.008 10.322-5.961c.955-.561 1.586-1.582 1.588-2.75v-11.922c-.002-1.168-.633-2.189-1.573-2.742zm-.529 14.672c0 .389-.211.73-.526.914l-.004.002-10.324 5.961c-.152.088-.334.142-.53.142s-.377-.053-.535-.145l.005.002-10.324-5.961c-.319-.186-.529-.527-.529-.916v-11.922c0-.389.211-.73.526-.914l.004-.002 10.324-5.961c.152-.09.334-.143.53-.143s.377.053.535.144l-.006-.002 10.324 5.961c.319.185.529.527.529.916z"/><path d="m22.094 19.451h-.758c-.188 0-.363.049-.515.135l.006-.004-4.574 2.512-5.282-3.049v-6.082l5.282-3.051 4.576 2.504c.146.082.323.131.508.131h.758c.293 0 .529-.239.529-.531v-.716c0-.2-.11-.373-.271-.463l-.004-.002-5.078-2.777c-.293-.164-.645-.26-1.015-.26-.39 0-.756.106-1.07.289l.01-.006-5.281 3.049c-.636.375-1.056 1.055-1.059 1.834v6.082c0 .779.422 1.461 1.049 1.828l.009.006 5.281 3.049c.305.178.67.284 1.061.284.373 0 .723-.098 1.027-.265l-.012.006 5.08-2.787c.166-.091.276-.265.276-.465v-.716c0-.293-.238-.529-.529-.529z"/></svg>